<?xml version="1.0" standalone="no"?>
<!DOCTYPE svg PUBLIC "-//W3C//DTD SVG 20010904//EN"
 "http://www.w3.org/TR/2001/REC-SVG-20010904/DTD/svg10.dtd">
<svg version="1.0" xmlns="http://www.w3.org/2000/svg"
 width="1233.000000pt" height="1541.000000pt" viewBox="0 0 1233.000000 1541.000000"
 preserveAspectRatio="xMidYMid meet">

<g transform="translate(0.000000,1541.000000) scale(0.100000,-0.100000)"
fill="#000000" stroke="none">
<path d="M10 10958 c0 -4842 -4 -4500 55 -4854 147 -896 470 -1723 969 -2484
282 -430 542 -747 941 -1146 267 -267 418 -405 690 -624 720 -580 1589 -1093
2530 -1490 347 -147 899 -342 970 -343 47 -1 374 115 739 260 1896 755 3358
1870 4307 3283 488 726 832 1517 1013 2330 39 177 81 427 96 579 7 69 10 1556
10 4522 l0 4419 -6160 0 -6160 0 0 -4452z m6188 3077 c3 -11 0 -15 -7 -11 -7
4 -11 -1 -11 -13 0 -12 7 -21 15 -21 8 0 15 5 15 10 0 6 6 10 13 10 22 0 16
-64 -7 -68 -11 -3 -16 0 -12 7 4 6 0 11 -8 11 -24 0 -19 -38 5 -45 12 -4 29
-26 40 -51 16 -35 25 -44 45 -44 13 0 57 -12 97 -26 52 -18 101 -27 175 -31
121 -7 154 -23 190 -93 32 -62 26 -138 -19 -229 -18 -36 -32 -71 -31 -76 1 -6
-11 -18 -27 -28 -35 -21 -91 -83 -91 -101 0 -8 -7 -17 -16 -20 -9 -4 -14 -13
-10 -21 3 -9 -1 -18 -9 -21 -8 -3 -23 -20 -33 -38 -12 -20 -31 -36 -52 -42
l-33 -9 28 -33 c33 -39 67 -58 131 -72 109 -25 214 31 291 153 24 40 76 123
114 184 96 154 153 214 247 260 65 33 87 38 156 41 132 6 232 -43 318 -152 58
-74 79 -133 85 -241 12 -195 -60 -319 -248 -433 -46 -28 -53 -28 -35 1 14 21
46 128 46 153 0 8 -30 15 -82 19 l-82 7 36 19 c80 41 148 160 148 260 0 95
-60 186 -149 227 -61 28 -131 33 -156 12 -36 -30 -79 -108 -144 -259 -38 -87
-85 -184 -105 -214 -45 -67 -129 -146 -185 -174 l-41 -20 31 -7 c17 -3 55 -6
83 -6 62 0 226 -24 316 -46 104 -26 209 -73 295 -132 187 -128 321 -277 405
-447 68 -138 84 -205 83 -345 0 -132 -23 -217 -89 -331 -32 -56 -58 -90 -171
-229 l-22 -27 61 24 c53 22 71 24 142 20 45 -3 95 -9 111 -12 28 -6 32 -3 48
30 18 38 22 65 10 65 -5 0 -16 7 -26 14 -15 12 -17 18 -7 36 11 21 21 22 62 5
12 -5 21 2 34 27 9 18 18 34 19 36 4 5 55 -21 55 -27 -1 -3 -7 -17 -15 -31
-20 -36 -18 -49 10 -62 28 -13 31 -26 11 -53 -13 -18 -15 -18 -39 -2 -15 9
-29 17 -31 17 -7 0 -46 -76 -46 -89 0 -6 23 -31 50 -57 30 -28 63 -73 83 -113
29 -60 32 -74 32 -162 0 -91 -2 -100 -38 -170 -20 -41 -37 -81 -37 -89 0 -8
-21 -57 -46 -108 -26 -51 -44 -95 -41 -98 3 -3 33 -11 66 -17 34 -6 60 -16 58
-22 -5 -15 -106 -74 -152 -88 -22 -7 -95 -12 -165 -12 -123 0 -127 1 -195 34
-46 23 -93 57 -136 100 -115 115 -161 239 -161 436 0 158 32 266 154 525 123
260 175 520 138 682 -21 91 -75 192 -127 238 -103 91 -334 179 -627 240 -222
46 -277 63 -403 127 -180 91 -295 204 -385 379 l-42 82 -28 -68 c-63 -160
-180 -290 -338 -378 -78 -44 -239 -95 -430 -136 -91 -20 -207 -46 -258 -57
-121 -27 -256 -94 -321 -159 -98 -98 -162 -288 -164 -490 -2 -111 0 -118 37
-215 21 -55 78 -183 126 -285 93 -197 120 -270 140 -390 36 -207 2 -370 -110
-522 -42 -59 -75 -81 -98 -67 -14 9 -26 7 -58 -9 -37 -19 -42 -27 -62 -94 -24
-80 -29 -186 -11 -237 13 -38 6 -50 -21 -34 -15 10 -21 8 -35 -14 l-17 -26
-16 26 c-12 20 -22 25 -39 21 -27 -7 -28 -5 -8 32 21 40 37 125 33 176 l-3 43
-79 8 c-84 8 -223 56 -251 87 -15 16 -13 18 17 24 17 3 49 11 69 16 l38 10
-28 43 c-28 41 -82 159 -76 165 1 2 22 -10 46 -26 24 -17 65 -40 91 -53 l46
-22 45 30 45 29 -125 270 c-69 148 -192 413 -274 588 l-149 320 0 94 c0 55 4
92 10 90 5 -2 41 -30 81 -62 80 -67 64 -37 352 -641 201 -422 192 -405 206
-383 9 15 9 23 0 34 -7 8 -9 28 -6 48 3 19 0 39 -6 45 -18 18 -12 119 12 195
29 94 27 120 -12 169 -49 61 -102 152 -139 237 -32 74 -33 77 -33 230 0 135 3
165 23 230 80 255 274 474 553 624 149 80 327 128 522 142 l98 7 -63 34 c-70
37 -145 106 -188 173 -16 25 -61 115 -101 200 -128 274 -151 295 -273 250
-149 -56 -211 -212 -142 -355 27 -55 78 -105 129 -128 15 -6 27 -15 27 -18 0
-4 -28 -10 -62 -13 -116 -13 -111 -4 -67 -109 21 -51 36 -94 34 -96 -10 -10
-120 55 -170 100 -170 156 -193 415 -54 595 95 124 219 167 381 133 116 -24
261 -132 324 -240 17 -30 50 -87 73 -126 108 -187 250 -277 376 -238 46 13
115 67 115 90 0 6 -14 19 -31 29 -17 10 -35 29 -41 42 -6 13 -14 24 -18 24 -4
0 -11 8 -14 18 -14 37 -37 68 -83 109 -26 24 -51 43 -55 43 -5 0 -8 9 -8 19 0
11 -5 23 -10 26 -20 12 -51 87 -62 145 -8 47 -7 69 6 112 24 85 47 100 174
114 59 7 154 26 211 43 57 17 105 31 107 31 2 0 4 7 4 17 0 9 19 34 41 55 33
31 39 42 29 51 -10 9 -14 9 -17 0 -7 -19 -33 -15 -34 5 0 9 -2 25 -4 35 -2 11
3 17 16 17 10 0 19 -4 19 -10 0 -5 7 -10 15 -10 8 0 15 7 15 15 0 8 -7 15 -15
15 -14 0 -21 21 -11 31 2 2 19 4 38 3 23 -1 34 -6 36 -19z m-16 -1105 c19 -17
19 -20 5 -26 -10 -3 -17 -17 -17 -33 0 -21 9 -31 45 -50 45 -24 63 -55 51 -86
-4 -12 5 -15 50 -15 54 0 100 -16 122 -42 7 -9 36 -15 77 -16 38 -2 77 -9 89
-18 46 -29 60 -100 29 -144 -10 -14 -16 -33 -15 -42 2 -12 -3 -18 -17 -18 -30
0 -60 -38 -78 -100 -8 -30 -16 -56 -17 -57 -1 -1 -35 7 -76 19 -113 31 -356
29 -497 -4 l-102 -24 -21 59 c-26 70 -62 111 -91 104 -14 -4 -19 -1 -18 11 1
9 -5 34 -15 54 -20 46 -20 61 -1 98 21 41 63 60 135 60 44 0 62 4 66 15 7 17
50 32 120 41 48 6 50 7 46 33 -4 27 20 55 73 86 23 14 28 62 8 70 -14 5 -13 8
3 25 24 24 21 24 46 0z m-53 -745 c61 -18 65 -18 115 1 41 15 77 19 181 19
117 -1 138 -3 215 -30 110 -37 185 -38 260 -2 30 15 55 25 56 24 0 -1 21 -39
44 -84 39 -75 46 -83 73 -83 30 0 32 10 11 65 -6 14 -1 13 27 -4 19 -12 37
-21 41 -21 3 0 12 17 19 38 l12 37 9 -30 c5 -16 11 -36 14 -43 3 -9 14 -7 45
8 48 25 58 21 35 -15 -20 -31 -15 -41 24 -50 38 -8 38 -18 -1 -32 l-31 -12 29
-37 c22 -30 24 -36 10 -31 -11 4 -30 10 -43 13 -33 8 -32 -18 1 -40 l25 -16
-3 -168 -2 -167 -42 -9 c-25 -5 -43 -15 -43 -22 0 -18 4 -17 41 2 39 20 45 14
25 -25 -21 -39 -21 -38 14 -46 17 -4 30 -10 30 -15 0 -4 -13 -13 -30 -20 -34
-14 -37 -34 -14 -95 16 -40 30 -101 57 -244 14 -69 13 -75 -4 -92 -11 -11 -28
-19 -39 -19 -15 0 -20 -7 -20 -25 0 -29 2 -30 41 -9 17 8 33 14 35 11 2 -2 -2
-19 -10 -38 l-14 -33 36 -16 36 -16 -33 -14 c-33 -13 -34 -19 -16 -64 7 -16 6
-17 -13 -7 -32 17 -52 13 -52 -9 0 -17 7 -20 39 -20 29 0 41 -5 45 -17 10 -35
5 -327 -6 -340 -6 -7 -24 -13 -40 -13 -23 0 -29 -4 -26 -17 2 -13 15 -19 42
-21 l39 -3 -33 -27 -32 -27 21 -27 c28 -35 27 -38 -13 -31 l-33 5 -5 -64 c-5
-63 -39 -148 -58 -148 -6 0 -10 -10 -10 -22 0 -27 -46 -129 -63 -140 -7 -5
-27 -6 -45 -3 -31 6 -62 -7 -62 -25 0 -4 14 -13 30 -20 39 -16 38 -26 -5 -34
-39 -8 -39 -8 -26 -54 11 -35 6 -39 -23 -17 -28 21 -34 19 -50 -17 l-13 -33
-13 42 c-9 31 -16 40 -25 33 -6 -5 -10 -23 -7 -39 3 -24 -3 -36 -38 -68 -23
-21 -51 -42 -61 -47 -10 -5 -19 -14 -19 -20 0 -20 -98 -86 -127 -86 -15 0 -36
9 -48 20 -14 13 -28 18 -39 14 -15 -6 -13 -11 15 -40 l33 -34 -42 0 c-38 0
-42 -2 -42 -25 0 -25 0 -25 -31 -9 -29 15 -32 14 -53 -5 -30 -28 -36 -26 -36
9 0 20 -5 30 -15 30 -8 0 -15 -9 -15 -20 0 -36 -43 -53 -120 -48 -38 3 -72 2
-77 -2 -4 -4 -38 -10 -75 -13 -70 -5 -86 2 -101 46 -11 30 -37 21 -37 -13 l0
-31 -30 23 -30 22 -25 -24 -25 -23 0 31 c0 31 -2 32 -42 32 l-42 0 29 30 c22
23 26 33 17 42 -9 9 -18 6 -40 -15 -15 -15 -35 -27 -43 -27 -21 0 -116 67
-129 90 -6 11 -18 20 -26 20 -8 0 -35 17 -60 38 -42 35 -45 40 -42 80 4 53
-16 57 -33 5 l-12 -36 -15 29 c-8 16 -16 30 -17 32 -2 2 -18 -4 -35 -13 l-33
-17 7 25 c3 14 8 32 11 40 4 10 -6 16 -37 23 l-43 9 33 20 c34 20 39 34 21 52
-8 8 -20 8 -39 1 -51 -17 -84 16 -110 112 -7 24 -22 57 -35 72 -33 38 -58 121
-50 159 7 31 7 31 -29 27 -41 -5 -44 0 -17 33 19 24 19 24 -7 52 -14 15 -20
28 -14 28 7 1 17 3 22 4 6 1 17 3 25 4 23 2 18 31 -6 31 -11 0 -29 5 -40 11
-18 9 -20 21 -20 102 0 51 -2 120 -5 155 -7 78 10 112 56 112 20 0 30 5 30 15
0 18 -14 19 -42 4 -28 -15 -32 -6 -13 30 17 34 20 30 -45 53 -10 4 -3 11 23
22 l37 16 -16 31 c-8 17 -13 33 -11 36 3 2 21 -3 41 -11 31 -13 36 -13 36 -1
0 8 -13 21 -30 30 -16 8 -34 23 -39 33 -10 20 4 141 19 156 6 6 10 32 10 58 0
27 9 74 20 105 27 77 26 82 -17 100 l-38 16 37 16 38 16 -20 33 c-22 36 -18
38 35 17 34 -15 36 -15 33 2 -2 12 -14 19 -33 21 -60 7 -64 18 -64 190 0 143
2 157 19 169 11 8 20 21 20 29 0 12 -8 13 -36 8 -34 -6 -36 -6 -25 14 6 12 16
24 21 27 19 12 10 23 -25 35 -42 14 -38 27 11 36 l35 6 -21 35 c-11 19 -20 36
-20 38 0 2 21 -5 46 -15 25 -11 47 -20 48 -20 2 0 9 19 16 43 l13 42 14 -35
c8 -19 17 -37 18 -39 2 -2 20 7 40 19 l36 22 -15 -37 c-9 -21 -15 -39 -13 -41
1 -1 21 0 43 3 40 5 42 7 82 89 l41 83 48 -22 c69 -32 198 -29 308 6 44 14 91
28 105 31 48 9 196 -2 259 -19z m-1416 -1869 c15 -4 27 -13 27 -21 0 -18 -85
-22 -95 -5 -11 18 4 42 22 37 10 -3 30 -8 46 -11z m50 -77 c33 -18 18 -30 -34
-27 -42 2 -55 8 -68 27 l-15 24 49 -8 c28 -4 58 -11 68 -16z m34 -61 c7 -6 13
-17 13 -25 0 -11 -11 -12 -52 -7 -49 6 -78 24 -78 47 0 12 100 -1 117 -15z
m-47 -57 c0 -18 -18 -21 -30 -6 -10 13 -9 15 9 15 11 0 21 -4 21 -9z m70 -20
c18 -36 -11 -68 -50 -56 -42 13 -29 75 15 75 14 0 29 -8 35 -19z m770 -3955
c0 -6 -8 -23 -18 -38 l-18 -27 -99 45 c-55 25 -102 47 -104 50 -5 5 14 49 35
81 l14 22 95 -61 c52 -33 95 -65 95 -72z m723 99 l47 -6 0 -322 c0 -177 3
-332 6 -344 6 -22 4 -23 -55 -23 -35 0 -61 4 -61 10 0 7 -8 6 -22 -1 -65 -35
-164 -24 -214 22 -54 50 -69 95 -69 204 0 83 4 107 22 140 26 48 68 90 106
104 36 14 113 14 138 1 18 -10 19 -6 19 110 0 111 2 121 18 117 9 -3 38 -8 65
-12z m285 -18 c61 -55 -11 -161 -85 -125 -63 30 -65 109 -4 140 37 18 55 15
89 -15z m-3601 1 c35 -32 31 -79 -9 -113 -37 -31 -71 -28 -105 11 -30 33 -29
69 2 99 31 32 80 33 112 3z m1883 2 c25 -25 26 -80 1 -111 -13 -17 -29 -23
-56 -23 -46 0 -75 31 -75 80 0 45 30 74 75 74 22 0 43 -8 55 -20z m4650 -2
c37 -41 23 -106 -29 -128 -61 -25 -126 40 -101 101 7 16 20 34 29 39 29 17 79
11 101 -12z m-2222 -27 c43 -22 43 -22 27 -49 -40 -67 -40 -67 -84 -47 -28 12
-53 16 -82 12 -92 -12 -128 -75 -128 -225 -1 -122 12 -174 55 -212 46 -40 93
-47 152 -24 26 10 50 19 54 19 9 0 58 -66 58 -77 0 -5 -24 -20 -52 -33 -60
-28 -162 -34 -230 -13 -53 16 -123 80 -153 139 -59 116 -48 308 24 414 29 43
104 99 155 115 50 15 156 6 204 -19z m-5388 -243 c5 -251 6 -258 28 -280 31
-32 113 -31 145 1 21 21 22 29 25 282 l3 260 67 -3 67 -3 3 -248 c1 -150 -2
-264 -8 -287 -25 -93 -104 -142 -231 -142 -68 0 -87 4 -136 28 -45 23 -62 38
-80 73 -22 43 -23 53 -23 313 l0 269 68 -3 67 -3 5 -257z m3207 157 l-7 -75
60 0 59 0 -17 -45 c-16 -44 -18 -45 -59 -45 l-43 0 1 -132 c1 -177 3 -182 61
-186 43 -3 46 -5 51 -35 3 -18 1 -36 -5 -42 -5 -5 -45 -10 -88 -10 -76 0 -81
1 -111 32 l-32 31 -5 171 c-4 158 -6 171 -23 171 -16 0 -19 8 -19 44 0 38 3
45 22 48 16 2 23 10 23 28 4 90 0 85 63 102 31 9 61 17 66 17 5 1 6 -32 3 -74z
m-2639 -93 c4 -28 6 -27 66 3 56 28 92 31 141 11 64 -27 69 -45 74 -278 l3
-208 -65 0 -66 0 -3 185 c-2 152 -6 188 -18 195 -18 12 -56 5 -87 -16 -22 -14
-23 -19 -23 -189 l0 -175 -65 0 -65 0 0 198 c0 108 -4 214 -9 235 l-9 37 47
14 c59 19 75 16 79 -12z m522 -222 l0 -250 -65 0 -65 0 0 240 0 240 23 4 c12
3 31 7 42 9 11 3 30 5 43 6 l22 1 0 -250z m192 160 c16 -47 38 -120 50 -163
l21 -78 18 68 c9 37 30 109 46 158 l29 90 68 3 c53 2 67 0 64 -10 -3 -7 -42
-118 -88 -246 l-83 -233 -56 3 -56 3 -86 235 c-47 129 -84 237 -82 240 5 5 92
18 112 16 8 0 26 -36 43 -86z m618 68 c74 -38 110 -110 110 -220 l0 -58 -141
0 -141 0 7 -27 c22 -91 103 -117 191 -62 l31 19 27 -40 26 -39 -43 -26 c-59
-34 -136 -48 -195 -34 -112 25 -176 115 -177 249 0 93 21 153 73 203 63 61
153 75 232 35z m302 -8 l10 -30 34 30 c26 22 45 30 74 30 21 0 41 -4 44 -8 3
-5 -2 -32 -11 -60 -16 -50 -18 -52 -53 -52 -19 0 -46 -7 -58 -16 -21 -15 -22
-21 -22 -190 l0 -174 -65 0 -65 0 0 203 c0 111 -4 217 -9 234 -9 32 -9 32 37
47 67 20 72 19 84 -14z m475 14 c26 -9 52 -19 56 -24 5 -4 -1 -26 -12 -48
l-21 -41 -36 15 c-47 20 -123 15 -138 -8 -18 -29 4 -51 70 -71 131 -41 164
-72 164 -158 0 -136 -167 -205 -337 -140 -35 13 -63 28 -63 33 0 9 38 88 43
88 1 0 29 -11 62 -25 74 -30 118 -32 145 -5 38 38 17 72 -53 90 -97 24 -114
31 -141 59 -29 30 -43 90 -32 135 9 34 54 86 91 102 42 18 145 17 202 -2z
m293 -234 l0 -250 -65 0 -65 0 0 240 0 240 23 4 c12 3 31 7 42 9 11 3 30 5 43
6 l22 1 0 -250z m696 231 c64 -29 74 -61 74 -234 0 -131 2 -147 21 -171 l20
-26 -33 -39 c-35 -42 -46 -42 -82 -2 l-18 20 -29 -22 c-41 -29 -141 -35 -188
-10 -56 29 -76 65 -76 136 0 106 58 157 188 165 l67 4 0 32 c0 18 -5 37 -12
44 -20 20 -82 14 -133 -13 -26 -14 -49 -24 -50 -23 -1 2 -14 22 -28 45 -31 49
-29 52 64 87 78 31 158 33 215 7z m1024 -231 l0 -250 -65 0 -65 0 0 240 0 240
23 4 c12 3 31 7 42 9 11 3 30 5 43 6 l22 1 0 -250z m1089 232 c67 -34 76 -57
77 -210 1 -179 1 -179 23 -201 19 -19 18 -20 -11 -55 -35 -42 -50 -45 -83 -12
l-24 24 -27 -21 c-32 -25 -117 -34 -166 -18 -19 6 -48 25 -63 41 -24 25 -30
41 -33 93 -3 52 0 67 20 96 35 52 79 73 164 79 70 4 74 6 74 29 0 68 -58 83
-146 38 -27 -14 -50 -25 -51 -25 -3 0 -53 86 -53 92 0 5 98 48 140 62 36 11
127 5 159 -12z m301 -8 c0 -19 6 -18 58 7 54 27 109 21 156 -14 l33 -26 36 26
c71 50 183 36 214 -27 9 -18 13 -87 13 -232 l0 -208 -60 0 -60 0 0 176 c0 102
-4 183 -10 195 -13 23 -41 24 -80 4 l-30 -16 0 -179 0 -180 -65 0 -65 0 0 179
c0 99 -3 186 -6 195 -8 20 -46 20 -84 1 l-30 -16 0 -179 0 -180 -64 0 -65 0
-3 233 c-2 127 -2 233 -1 235 3 7 98 29 106 25 4 -2 7 -11 7 -19z m887 11 c79
-33 113 -91 120 -207 l6 -78 -142 0 -143 0 7 -32 c4 -18 18 -44 31 -58 32 -33
104 -34 156 -2 l36 22 21 -33 c12 -19 21 -39 21 -45 0 -6 -25 -23 -55 -38 -76
-37 -163 -38 -232 -3 -161 83 -163 382 -2 466 50 27 123 30 176 8z m308 0 c3
-8 7 -22 10 -31 4 -13 11 -10 40 15 27 23 45 31 75 31 21 0 41 -4 44 -8 3 -5
-2 -32 -11 -60 -16 -48 -18 -51 -49 -50 -18 1 -44 -6 -58 -16 l-26 -16 0 -175
0 -175 -65 0 -65 0 0 198 c0 108 -4 214 -9 235 l-9 37 47 14 c60 19 71 19 76
1z m345 -235 l0 -250 -65 0 -65 0 0 240 0 240 23 4 c12 3 31 7 42 9 11 3 30 5
43 6 l22 1 0 -250z m218 222 c4 -28 6 -27 66 3 56 28 92 31 141 11 65 -27 70
-46 73 -278 l4 -208 -66 0 -66 0 0 176 c0 197 -5 219 -51 210 -16 -3 -40 -13
-54 -22 l-25 -16 0 -174 0 -174 -65 0 -65 0 -2 210 c-1 116 -2 222 -2 237 -1
23 5 29 39 40 53 16 69 12 73 -15z m676 3 c45 -22 92 -82 107 -139 6 -23 9
-75 7 -117 -5 -89 -32 -145 -91 -193 -36 -29 -44 -31 -121 -31 -73 0 -87 3
-123 27 -28 19 -50 45 -70 85 -24 50 -28 70 -27 138 0 90 23 151 73 199 59 57
164 70 245 31z m-3175 -2405 c1 -9 -27 -28 -73 -48 -92 -42 -181 -120 -218
-192 -15 -30 -26 -55 -24 -57 1 -2 16 3 32 12 43 22 149 19 204 -6 133 -60
194 -210 140 -351 -44 -118 -179 -199 -307 -184 -172 20 -283 161 -283 361 0
213 121 389 352 510 37 20 85 42 105 49 l38 13 17 -46 c9 -25 17 -53 17 -61z
m-1941 -407 l2 -263 50 0 50 0 0 -70 0 -70 -200 0 c-126 0 -200 4 -201 10 0 6
-1 36 -1 68 l-1 57 67 3 66 3 0 159 c0 88 -2 160 -5 160 -3 0 -32 -13 -65 -30
-33 -16 -64 -30 -70 -30 -8 0 -50 70 -50 84 0 3 55 46 123 96 l122 91 55 -3
55 -3 3 -262z m502 252 c72 -19 128 -60 158 -115 34 -64 29 -161 -12 -214 -15
-21 -39 -42 -52 -48 -13 -6 -24 -14 -23 -17 0 -3 19 -20 42 -36 65 -48 87 -87
87 -159 -1 -78 -24 -129 -84 -184 -84 -78 -194 -112 -356 -112 l-106 0 -17 53
c-9 30 -17 56 -17 58 0 3 39 5 88 6 173 3 278 64 290 169 5 51 -10 94 -40 113
-12 7 -59 16 -105 19 l-83 5 0 67 0 68 84 3 c73 4 88 7 110 28 26 25 35 76 20
116 -23 60 -166 57 -253 -5 l-28 -19 -43 50 c-23 27 -39 56 -37 63 8 19 126
76 190 92 70 17 121 17 187 -1z m658 -10 c118 -50 171 -161 132 -279 -11 -33
-70 -96 -90 -96 -21 0 -8 -16 31 -40 116 -71 122 -238 13 -344 -81 -79 -196
-116 -365 -116 l-105 0 -17 53 c-9 30 -17 56 -17 58 0 3 37 5 83 6 178 1 297
73 297 180 0 89 -29 113 -147 121 l-83 5 0 67 0 68 84 3 c73 4 88 7 110 28 32
30 36 96 8 131 -36 45 -151 37 -234 -16 l-37 -23 -41 51 c-22 28 -39 56 -37
62 5 17 142 83 195 94 59 14 172 6 220 -13z"/>
<path d="M6106 13884 c-24 -23 -19 -34 14 -34 25 0 30 4 30 25 0 29 -21 33
-44 9z"/>
<path d="M6177 13881 c-6 -25 0 -31 30 -31 28 0 31 25 4 40 -26 14 -28 13 -34
-9z"/>
<path d="M6090 13813 c1 -28 52 -57 85 -49 25 6 55 32 55 47 0 5 -31 9 -70 9
-38 0 -70 -3 -70 -7z"/>
<path d="M6237 13761 c-9 -16 -17 -45 -17 -65 0 -27 -4 -36 -17 -36 -14 0 -15
-12 -10 -103 6 -105 27 -181 53 -191 10 -4 14 3 14 24 0 17 5 30 10 30 6 0 10
-11 10 -25 0 -32 10 -32 42 3 52 53 118 240 89 250 -6 2 -11 27 -11 58 0 40
-4 56 -16 61 -22 8 -35 -9 -49 -63 -16 -63 -31 -66 -40 -7 -14 103 -27 117
-58 64z"/>
<path d="M6047 13773 c-3 -5 -8 -34 -12 -66 -3 -32 -11 -57 -17 -55 -5 2 -17
26 -27 53 -12 38 -21 50 -36 50 -17 0 -20 -8 -23 -55 -2 -30 -8 -58 -14 -61
-17 -11 37 -171 75 -221 40 -52 67 -61 67 -23 0 15 4 24 10 20 6 -3 10 -17 10
-31 0 -34 16 -30 37 9 12 22 18 65 21 144 4 97 2 114 -12 119 -11 4 -16 18
-16 43 0 20 -7 47 -16 59 -15 22 -39 29 -47 15z"/>
<path d="M5650 13675 c-26 -31 13 -82 44 -56 19 16 21 42 4 59 -16 16 -33 15
-48 -3z m30 -25 c0 -5 -4 -10 -10 -10 -5 0 -10 5 -10 10 0 6 5 10 10 10 6 0
10 -4 10 -10z"/>
<path d="M6630 13675 c-6 -8 -9 -23 -5 -35 8 -25 51 -27 64 -2 20 38 -31 71
-59 37z m40 -20 c0 -8 -4 -15 -10 -15 -5 0 -10 7 -10 15 0 8 5 15 10 15 6 0
10 -7 10 -15z"/>
<path d="M6483 13603 c-15 -5 -17 -39 -4 -47 4 -3 16 0 25 7 14 10 15 15 4 28
-7 9 -19 15 -25 12z"/>
<path d="M5821 13581 c-8 -15 -7 -20 6 -25 21 -8 38 8 30 28 -8 22 -24 20 -36
-3z"/>
<path d="M6641 13570 c-21 -18 -22 -23 -11 -50 14 -33 34 -37 65 -14 19 14 19
15 1 49 -22 40 -23 41 -55 15z"/>
<path d="M5646 13558 c-22 -30 -20 -44 6 -62 31 -22 35 -21 54 16 16 30 15 32
-7 49 -31 24 -35 23 -53 -3z"/>
<path d="M5680 13455 c-14 -17 -5 -51 15 -59 8 -3 24 3 36 13 18 15 20 21 10
39 -13 25 -43 29 -61 7z m40 -26 c0 -5 -7 -9 -15 -9 -15 0 -20 12 -9 23 8 8
24 -1 24 -14z"/>
<path d="M6601 13451 c-13 -24 8 -55 34 -50 23 5 40 32 32 53 -9 22 -54 20
-66 -3z m49 -9 c0 -13 -12 -22 -22 -16 -10 6 -1 24 13 24 5 0 9 -4 9 -8z"/>
<path d="M6145 13290 c-12 -37 16 -55 34 -22 7 14 5 21 -9 30 -16 10 -20 8
-25 -8z"/>
<path d="M6047 13284 c-14 -15 -6 -34 14 -34 14 0 19 5 17 17 -3 18 -20 27
-31 17z"/>
<path d="M6245 13281 c-8 -15 3 -31 21 -31 9 0 14 7 12 17 -4 20 -24 28 -33
14z"/>
<path d="M6346 13265 c-3 -9 1 -18 10 -22 19 -7 28 2 21 22 -8 19 -23 19 -31
0z"/>
<path d="M5947 13256 c-3 -8 1 -17 9 -20 23 -9 24 -8 24 14 0 23 -25 27 -33 6z"/>
<path d="M5855 13240 c-8 -14 3 -30 21 -30 8 0 14 9 14 20 0 21 -24 28 -35 10z"/>
<path d="M6444 13239 c-8 -14 11 -33 25 -25 6 4 11 14 11 22 0 16 -26 19 -36
3z"/>
<path d="M7840 11246 c-57 -15 -105 -44 -149 -90 -24 -25 -32 -39 -25 -46 6
-6 64 -40 129 -75 l119 -64 68 131 c37 72 68 132 68 133 0 7 -102 25 -133 24
-18 0 -52 -6 -77 -13z"/>
<path d="M4667 11165 c13 -84 9 -139 -12 -170 -10 -17 -18 -42 -16 -56 1 -14
-5 -31 -14 -39 -10 -8 -12 -16 -5 -24 5 -7 9 -32 9 -57 0 -24 2 -57 3 -74 1
-16 -1 -40 -5 -51 l-8 -21 57 18 c69 23 80 23 88 3 9 -23 26 -7 48 44 25 55
27 181 4 255 -18 60 -63 130 -116 182 l-40 39 7 -49z"/>
<path d="M8043 11088 c-32 -62 -61 -121 -65 -130 -6 -14 15 -29 111 -82 65
-36 124 -66 131 -68 20 -5 42 79 36 139 -6 64 -36 133 -82 190 -65 79 -66 79
-131 -49z"/>
<path d="M6201 12776 c-15 -18 -3 -46 20 -46 25 0 35 26 19 45 -15 19 -24 19
-39 1z"/>
<path d="M6077 12766 c-7 -19 18 -40 38 -32 8 3 15 15 15 26 0 14 -7 20 -24
20 -13 0 -26 -6 -29 -14z"/>
<path d="M5956 12659 c-35 -28 -34 -69 4 -126 25 -36 28 -48 19 -60 -10 -11
-9 -17 3 -29 13 -13 20 -14 37 -4 18 9 22 19 19 53 -2 32 1 42 12 42 10 0 16
-11 17 -34 2 -43 15 -55 48 -47 19 5 24 10 17 19 -6 7 -7 48 -3 104 l6 91 -29
6 c-61 13 -123 6 -150 -15z"/>
<path d="M6197 12673 c-11 -10 -8 -133 4 -154 8 -15 7 -24 -2 -35 -10 -13 -10
-17 2 -25 33 -21 59 4 59 55 0 16 6 26 14 26 19 0 26 -21 14 -43 -21 -41 20
-81 53 -51 18 16 18 18 1 30 -15 13 -15 15 -2 27 32 25 62 87 56 112 -12 48
-43 65 -121 65 -40 0 -75 -3 -78 -7z"/>
<path d="M6450 12616 c0 -9 -9 -35 -20 -57 -14 -27 -18 -45 -12 -57 12 -21 5
-42 -14 -42 -18 0 -18 -14 1 -30 24 -20 45 -4 45 34 0 38 15 55 33 37 9 -9 8
-16 -1 -31 -25 -41 -10 -67 34 -56 20 5 23 11 18 30 -4 19 -1 26 15 31 54 17
67 75 28 121 -18 21 -35 28 -75 32 -44 4 -52 2 -52 -12z"/>
<path d="M5774 12601 c-33 -20 -59 -76 -48 -104 3 -8 21 -23 40 -32 26 -12 34
-22 32 -38 -2 -18 3 -23 30 -25 28 -3 32 0 32 20 0 13 -5 29 -11 35 -16 16 -4
44 16 37 9 -4 15 -19 15 -41 0 -31 2 -34 27 -31 33 4 41 24 13 31 -21 5 -27
31 -11 42 6 3 -2 32 -17 65 -24 53 -30 59 -57 60 -16 0 -44 -9 -61 -19z"/>
<path d="M6070 12385 c0 -8 7 -15 15 -15 8 0 15 7 15 15 0 8 -7 15 -15 15 -8
0 -15 -7 -15 -15z"/>
<path d="M6140 12390 c0 -5 11 -10 25 -10 14 0 25 5 25 10 0 6 -11 10 -25 10
-14 0 -25 -4 -25 -10z"/>
<path d="M6240 12385 c0 -8 5 -15 10 -15 6 0 10 7 10 15 0 8 -4 15 -10 15 -5
0 -10 -7 -10 -15z"/>
<path d="M5990 12380 c0 -5 11 -10 25 -10 14 0 25 5 25 10 0 6 -11 10 -25 10
-14 0 -25 -4 -25 -10z"/>
<path d="M6290 12380 c0 -5 11 -10 25 -10 14 0 25 5 25 10 0 6 -11 10 -25 10
-14 0 -25 -4 -25 -10z"/>
<path d="M5940 12365 c0 -8 5 -15 10 -15 6 0 10 7 10 15 0 8 -4 15 -10 15 -5
0 -10 -7 -10 -15z"/>
<path d="M6372 12368 c6 -18 28 -21 28 -4 0 9 -7 16 -16 16 -9 0 -14 -5 -12
-12z"/>
<path d="M6437 12363 c-14 -13 -6 -23 18 -23 16 0 25 6 25 15 0 15 -31 21 -43
8z"/>
<path d="M5850 12350 c0 -5 11 -10 25 -10 14 0 25 5 25 10 0 6 -11 10 -25 10
-14 0 -25 -4 -25 -10z"/>
<path d="M5818 12143 l-58 -15 0 -167 c1 -142 3 -163 14 -148 9 11 12 32 9 57
-7 52 3 87 27 95 11 3 20 12 20 19 0 7 6 21 14 31 13 19 15 18 32 -17 9 -20
26 -39 36 -41 17 -5 19 -14 18 -64 -2 -85 -1 -91 15 -55 8 17 18 32 23 32 4 0
16 -15 26 -32 9 -18 14 -24 10 -13 -22 62 -11 135 19 135 7 0 18 14 24 30 14
37 26 38 42 3 7 -15 21 -33 30 -40 22 -15 34 -65 22 -96 -9 -22 2 -57 17 -57
4 0 7 68 6 151 -1 149 -1 152 -25 169 -60 41 -210 52 -321 23z"/>
<path d="M6898 12123 c-17 -4 -18 -29 -17 -351 l1 -347 18 95 c9 52 21 111 26
130 11 41 7 481 -4 479 -4 -1 -15 -3 -24 -6z"/>
<path d="M5386 12063 c-14 -29 -26 -58 -26 -63 0 -6 69 -10 180 -10 l180 0 0
58 0 58 -98 -9 c-76 -7 -112 -6 -154 5 l-56 14 -26 -53z"/>
<path d="M6682 11628 l3 -483 23 -3 22 -3 -2 483 -3 483 -23 3 -22 3 2 -483z"/>
<path d="M6780 11626 c0 -487 0 -492 38 -478 9 3 12 108 12 478 l0 474 -25 0
-25 0 0 -474z"/>
<path d="M6990 11920 l1 -115 24 30 c33 40 33 99 0 156 l-25 44 0 -115z"/>
<path d="M7158 12019 c-25 -14 -24 -65 1 -79 11 -5 24 -10 30 -10 16 0 41 30
41 50 0 21 -25 50 -43 50 -7 0 -20 -5 -29 -11z"/>
<path d="M7065 11990 c12 -22 20 -29 27 -22 12 12 4 28 -23 43 -20 10 -20 10
-4 -21z"/>
<path d="M5148 12002 c-20 -4 -34 -43 -25 -67 8 -20 54 -30 72 -15 16 13 20
48 7 66 -9 14 -33 21 -54 16z"/>
<path d="M6060 11941 c0 -5 5 -13 10 -16 6 -3 10 -2 10 4 0 5 -4 13 -10 16 -5
3 -10 2 -10 -4z"/>
<path d="M7104 11914 c3 -9 6 -18 6 -20 0 -2 4 -4 9 -4 5 0 7 9 4 20 -3 11
-10 20 -15 20 -6 0 -7 -7 -4 -16z"/>
<path d="M5230 11890 c0 -11 2 -20 5 -20 2 0 9 9 15 20 9 16 8 20 -5 20 -8 0
-15 -9 -15 -20z"/>
<path d="M7180 11890 c0 -5 5 -10 11 -10 5 0 7 5 4 10 -3 6 -8 10 -11 10 -2 0
-4 -4 -4 -10z"/>
<path d="M5320 11855 c0 -3 16 -25 35 -51 19 -25 35 -50 35 -55 0 -5 71 -9
165 -9 l165 0 0 60 0 60 -200 0 c-110 0 -200 -2 -200 -5z"/>
<path d="M5851 11844 c0 -11 3 -14 6 -6 3 7 2 16 -1 19 -3 4 -6 -2 -5 -13z"/>
<path d="M6060 11841 c0 -25 6 -27 13 -6 4 8 2 17 -3 20 -6 4 -10 -3 -10 -14z"/>
<path d="M7111 11846 c-7 -9 -11 -37 -9 -73 3 -57 3 -58 33 -58 23 0 31 5 33
23 2 12 -1 22 -7 22 -6 0 -11 -7 -11 -15 0 -8 -7 -15 -16 -15 -11 0 -14 8 -12
28 3 26 5 27 62 27 44 0 61 -4 70 -17 13 -21 0 -36 -16 -20 -19 19 -30 14 -26
-10 2 -18 10 -23 33 -23 l30 0 0 70 0 70 -76 3 c-57 2 -79 -1 -88 -12z"/>
<path d="M5114 11830 c-28 -5 -29 -7 -32 -73 l-3 -68 33 3 c27 2 34 8 36 28 2
24 2 24 -13 6 -19 -24 -40 -9 -31 22 6 17 14 19 64 17 31 -2 60 -3 65 -4 4 -1
7 -13 7 -28 -1 -25 -2 -26 -14 -10 -19 24 -38 21 -34 -5 2 -19 9 -23 38 -23
l35 0 3 59 c2 32 -1 63 -7 69 -11 11 -100 15 -147 7z"/>
<path d="M5287 11679 c2 -106 -2 -167 -9 -176 -6 -7 -26 -13 -44 -13 -19 0
-34 -5 -34 -10 0 -19 28 -22 59 -5 35 18 37 15 16 -25 -15 -29 -14 -30 15 -45
30 -16 32 -35 4 -35 -21 0 -28 -25 -14 -50 16 -30 7 -34 -29 -16 -38 20 -41
20 -41 -1 0 -11 16 -24 42 -35 l41 -18 -6 -59 c-2 -32 -11 -69 -18 -82 -8 -13
-14 -49 -14 -79 -2 -75 -25 -117 -70 -126 -20 -3 -35 -12 -35 -20 0 -18 9 -18
54 1 l37 16 -20 -39 -20 -39 35 -17 c20 -9 40 -13 46 -10 17 11 83 161 116
264 41 128 56 242 48 355 -11 164 -60 312 -127 388 l-34 39 2 -163z"/>
<path d="M7026 11763 c-91 -125 -121 -404 -66 -617 17 -69 103 -274 135 -322
15 -23 16 -23 50 -7 40 19 41 22 20 49 -26 34 -19 45 20 28 44 -18 45 -18 45
6 0 15 -7 20 -27 20 -16 0 -33 4 -39 8 -19 12 -34 49 -33 79 1 27 1 26 11 -7
16 -60 26 -64 99 -44 88 23 92 28 74 93 -7 29 -15 54 -17 56 -2 2 -15 1 -30
-2 -19 -4 -28 -12 -28 -24 0 -24 16 -25 25 -1 6 16 7 16 17 -1 14 -26 3 -47
-27 -47 -14 0 -34 -5 -44 -12 -24 -15 -51 -4 -51 22 0 18 3 19 20 8 23 -15 33
-8 24 17 -5 13 -14 16 -37 11 -17 -4 -35 -12 -39 -19 -5 -7 -8 -2 -8 14 0 15
-9 46 -20 70 -36 81 -22 140 36 155 17 4 23 11 20 21 -3 8 -6 17 -6 19 0 3
-14 -3 -31 -11 -36 -19 -45 -15 -30 13 16 31 14 36 -21 50 l-33 13 37 16 c37
15 37 15 23 43 -21 40 -20 41 25 25 38 -13 40 -13 40 5 0 16 -7 20 -34 20 -18
0 -38 6 -44 13 -7 8 -11 65 -10 145 0 73 -2 135 -5 138 -3 3 -21 -16 -41 -43z"/>
<path d="M5783 11778 c-22 -23 -23 -33 -23 -164 1 -122 2 -137 15 -120 9 12
12 33 8 65 -6 50 8 91 30 91 7 0 18 14 24 30 14 38 32 38 46 0 11 -30 37 -49
37 -27 0 7 -7 21 -15 31 -8 11 -15 35 -15 53 0 29 -3 33 -17 25 -20 -12 -61 4
-65 25 -2 11 -9 9 -25 -9z"/>
<path d="M5965 11780 c3 -5 8 -10 11 -10 2 0 4 5 4 10 0 6 -5 10 -11 10 -5 0
-7 -4 -4 -10z"/>
<path d="M6114 11777 c-7 -20 -44 -23 -44 -4 -1 27 -18 -20 -25 -68 l-7 -50
23 35 23 35 15 -37 c9 -21 22 -38 29 -38 7 0 16 -8 19 -17 10 -27 21 25 17 78
-4 50 -38 95 -50 66z"/>
<path d="M5960 11690 c0 -19 3 -21 12 -12 9 9 9 15 0 24 -9 9 -12 7 -12 -12z"/>
<path d="M7102 11603 l3 -68 72 -3 c92 -4 113 7 113 56 0 67 -9 82 -46 82 -27
0 -34 -4 -34 -20 0 -23 15 -27 24 -5 9 26 26 17 26 -14 l0 -30 -67 2 c-62 2
-68 4 -71 25 -2 15 2 22 12 22 9 0 16 -7 16 -15 0 -8 5 -15 10 -15 6 0 10 11
10 25 0 22 -4 25 -35 25 l-36 0 3 -67z"/>
<path d="M5080 11596 c0 -85 1 -86 85 -86 104 0 105 1 105 76 l0 64 -33 0
c-38 0 -48 -6 -40 -26 7 -19 23 -18 23 1 0 8 5 15 10 15 6 0 10 -13 10 -29 0
-30 0 -30 -59 -30 -60 1 -90 16 -76 39 9 15 25 12 25 -5 0 -8 7 -15 16 -15 10
0 14 7 12 23 -2 18 -10 23 -40 25 l-38 3 0 -55z"/>
<path d="M5458 11605 c-2 -3 0 -30 5 -60 l10 -55 124 0 123 0 0 60 0 60 -128
0 c-71 0 -131 -2 -134 -5z"/>
<path d="M5936 11561 c-5 -39 -3 -57 11 -77 l17 -26 23 28 c20 24 22 36 17 74
-8 53 -9 56 -27 42 -9 -8 -17 -8 -24 -1 -7 7 -12 -5 -17 -40z"/>
<path d="M6150 11533 c0 -13 5 -23 10 -23 13 0 13 11 0 30 -8 12 -10 11 -10
-7z"/>
<path d="M5850 11524 c0 -8 5 -12 10 -9 6 3 10 10 10 16 0 5 -4 9 -10 9 -5 0
-10 -7 -10 -16z"/>
<path d="M6070 11530 c0 -5 5 -10 10 -10 6 0 10 5 10 10 0 6 -4 10 -10 10 -5
0 -10 -4 -10 -10z"/>
<path d="M6005 11470 c-18 -20 -18 -20 21 -20 26 0 34 3 25 9 -7 5 -17 14 -20
20 -5 8 -13 5 -26 -9z"/>
<path d="M6122 11470 c-11 -18 -10 -20 13 -20 23 0 24 2 15 20 -6 11 -12 20
-13 20 -1 0 -8 -9 -15 -20z"/>
<path d="M5782 11457 c-20 -21 -22 -34 -22 -147 0 -109 2 -122 14 -104 10 13
13 34 9 65 -6 50 8 89 32 89 8 0 15 6 15 13 0 7 7 22 15 33 15 19 15 19 30 0
14 -19 15 -18 15 11 0 27 -3 30 -32 31 -18 0 -37 8 -44 16 -10 14 -14 13 -32
-7z"/>
<path d="M5906 11465 c-4 -10 1 -15 16 -15 17 0 18 2 8 15 -7 8 -14 15 -15 15
-2 0 -5 -7 -9 -15z"/>
<path d="M7154 11443 c-35 -25 -18 -83 24 -83 40 0 58 23 46 58 -10 27 -47 41
-70 25z"/>
<path d="M5155 11410 c-24 -27 -13 -68 22 -76 50 -13 76 50 35 84 -22 17 -36
15 -57 -8z"/>
<path d="M5921 11420 c-5 -3 -11 -61 -12 -128 l-3 -123 124 -190 c68 -105 128
-193 132 -195 4 -3 8 82 7 188 l0 193 -73 125 -73 125 -46 5 c-26 3 -51 3 -56
0z m114 -130 c-3 -5 -12 -10 -20 -10 -17 0 -27 -27 -12 -34 9 -3 8 -7 -3 -15
-11 -8 -16 -7 -18 4 -4 19 -11 19 -34 -2 -16 -14 -18 -14 -18 -1 0 9 7 21 15
28 8 7 12 17 8 23 -4 6 0 8 10 4 9 -3 19 -2 22 3 4 6 17 10 31 10 14 0 22 -4
19 -10z m15 -101 c0 6 12 11 26 11 l26 0 -23 -19 c-20 -16 -21 -21 -10 -35 12
-14 11 -16 -7 -16 -11 0 -23 6 -26 13 -3 8 -9 6 -20 -7 -24 -30 -29 -13 -9 27
13 26 21 32 31 25 8 -7 12 -7 12 1z m54 -100 c9 14 56 15 56 1 0 -5 -9 -10
-20 -10 -22 0 -27 -19 -9 -37 7 -7 4 -12 -10 -16 -14 -3 -21 0 -21 9 0 21 -17
17 -34 -8 -16 -22 -16 -22 -16 -1 0 11 7 26 15 33 8 7 15 20 15 29 0 13 2 13
9 2 6 -9 11 -10 15 -2z"/>
<path d="M6881 11268 c-1 -73 3 -119 10 -123 20 -13 21 4 6 122 l-15 118 -1
-117z"/>
<path d="M5480 11356 c0 -7 -3 -34 -6 -60 l-7 -46 127 0 126 0 0 60 0 60 -120
0 c-95 0 -120 -3 -120 -14z"/>
<path d="M6300 11352 c0 -4 16 -8 35 -9 19 -1 35 3 35 8 0 5 -16 9 -35 9 -19
0 -35 -4 -35 -8z"/>
<path d="M7210 11320 c0 -5 5 -10 11 -10 5 0 7 5 4 10 -3 6 -8 10 -11 10 -2 0
-4 -4 -4 -10z"/>
<path d="M7165 11272 c-68 -19 -74 -30 -55 -98 11 -39 16 -44 41 -44 33 0 44
13 30 37 -9 16 -11 16 -19 -7 l-9 -24 -12 21 c-18 34 -13 43 23 43 19 0 38 5
41 10 9 15 41 12 55 -5 10 -12 10 -19 2 -27 -8 -8 -13 -7 -18 5 -8 23 -24 21
-24 -2 0 -26 13 -33 45 -25 26 6 27 9 20 53 -13 87 -20 91 -120 63z"/>
<path d="M5103 11248 c-6 -7 -13 -34 -15 -60 -5 -41 -3 -47 16 -52 36 -10 46
-7 46 14 0 11 -4 20 -10 20 -5 0 -10 -4 -10 -10 0 -5 -5 -10 -11 -10 -6 0 -9
10 -7 23 3 20 8 22 53 19 55 -4 77 -16 68 -38 -7 -19 -23 -18 -23 1 0 18 -16
20 -22 3 -9 -24 3 -38 32 -38 19 0 31 6 34 18 10 32 10 92 1 101 -6 5 -39 12
-75 16 -50 5 -69 4 -77 -7z"/>
<path d="M5850 11240 c0 -5 5 -10 10 -10 6 0 10 5 10 10 0 6 -4 10 -10 10 -5
0 -10 -4 -10 -10z"/>
<path d="M5788 11183 c-26 -29 -23 -33 25 -32 37 0 39 2 20 11 -12 6 -23 17
-25 25 -2 12 -6 11 -20 -4z"/>
<path d="M6230 11151 c-16 -31 4 -63 37 -59 34 4 52 32 37 56 -16 26 -60 28
-74 3z"/>
<path d="M6372 11158 c-34 -34 6 -90 48 -68 35 19 20 80 -20 80 -9 0 -21 -5
-28 -12z"/>
<path d="M5584 11112 l-141 -3 -37 -102 c-21 -56 -56 -139 -77 -184 -21 -45
-39 -97 -39 -115 0 -76 58 -234 83 -225 8 2 11 22 9 55 -4 52 10 92 31 92 7 0
18 14 24 30 10 26 9 32 -8 40 -10 6 -19 21 -19 33 0 12 -7 31 -15 41 -25 33
-19 82 15 117 16 17 32 40 35 50 9 28 19 23 38 -17 24 -50 43 -39 39 24 -3 45
0 54 27 82 17 18 33 41 36 51 9 26 19 24 36 -8 8 -15 25 -38 38 -51 21 -21 23
-30 17 -77 -6 -50 -5 -53 14 -48 11 3 20 11 20 18 0 7 9 23 21 36 l20 24 -4
-56 c-5 -56 -5 -58 59 -153 62 -92 92 -114 81 -60 -3 20 0 24 22 25 14 1 31 0
36 -1 6 -2 18 -2 27 -2 10 0 15 -5 12 -12 -3 -7 4 -21 16 -31 11 -10 20 -29
20 -42 0 -14 4 -21 10 -18 6 3 10 20 10 36 0 33 22 48 45 29 8 -7 15 -24 15
-38 0 -13 7 -30 17 -37 10 -8 18 -32 21 -67 l4 -55 -45 -18 c-26 -10 -53 -15
-62 -12 -16 7 -18 -6 -6 -37 7 -18 8 -18 14 -3 8 21 33 22 41 1 3 -9 6 -36 6
-60 0 -38 -5 -49 -41 -84 -45 -44 -59 -49 -59 -22 0 9 -5 24 -10 32 -8 13 -12
12 -31 -7 -21 -20 -21 -22 -5 -38 12 -12 16 -30 14 -59 l-3 -41 67 -21 c37
-12 84 -31 103 -43 20 -11 38 -21 41 -21 2 0 4 151 4 335 l0 334 -30 16 c-16
8 -46 15 -67 15 -65 1 -135 31 -160 69 -21 31 -23 46 -23 157 l0 122 -82 4
c-46 2 -146 2 -224 0z"/>
<path d="M6637 11113 c-4 -3 -7 -91 -7 -195 l0 -188 25 0 c18 0 25 5 25 19 0
20 25 35 41 25 5 -3 9 -14 9 -25 0 -13 7 -19 24 -19 18 0 26 -7 29 -22 3 -15
5 -10 6 13 0 20 -6 53 -14 72 -19 46 -19 101 0 117 12 10 20 9 40 -4 14 -9 25
-20 25 -24 0 -4 4 -13 9 -21 7 -11 16 -7 44 22 58 62 87 29 61 -69 -8 -30 -13
-69 -13 -87 1 -18 3 -24 6 -14 2 9 13 17 24 17 12 0 19 7 19 20 0 15 7 20 25
20 18 0 25 -5 25 -20 0 -13 7 -20 20 -20 11 0 20 4 20 9 0 4 -22 55 -49 112
-26 57 -61 141 -76 187 l-28 82 -142 0 c-78 0 -145 -3 -148 -7z m193 -43 c0
-13 7 -20 20 -20 15 0 20 -7 20 -29 0 -24 -3 -28 -20 -24 -17 5 -20 0 -20 -26
0 -26 -4 -31 -24 -31 -19 0 -25 6 -28 28 -2 19 -9 28 -25 30 -35 5 -32 52 2
52 18 0 25 5 25 20 0 15 7 20 25 20 18 0 25 -5 25 -20z"/>
<path d="M5055 11024 c-4 -31 -3 -60 2 -63 12 -11 132 -31 148 -25 12 5 33
109 24 118 -2 2 -15 6 -29 8 -18 2 -26 -2 -28 -17 -4 -17 -2 -18 12 -6 22 18
30 8 22 -24 -5 -21 -11 -25 -24 -19 -9 4 -33 9 -52 12 -19 2 -38 10 -42 16
-13 18 -9 36 7 36 8 0 15 -7 15 -15 0 -8 5 -15 11 -15 6 0 9 10 7 23 -2 17
-11 23 -34 25 -31 3 -32 3 -39 -54z"/>
<path d="M6236 11024 c-9 -8 -16 -22 -16 -29 0 -7 7 -21 16 -29 8 -9 22 -16
29 -16 7 0 21 7 29 16 9 8 16 22 16 29 0 7 -7 21 -16 29 -8 9 -22 16 -29 16
-7 0 -21 -7 -29 -16z"/>
<path d="M6376 11027 c-38 -27 2 -95 42 -71 21 14 28 50 12 70 -15 17 -31 18
-54 1z"/>
<path d="M5590 10915 c0 -8 5 -15 10 -15 6 0 10 7 10 15 0 8 -4 15 -10 15 -5
0 -10 -7 -10 -15z"/>
<path d="M6302 10908 c-17 -17 -15 -44 4 -62 20 -21 30 -20 54 4 28 28 10 69
-30 70 -9 0 -21 -5 -28 -12z"/>
<path d="M5537 10811 c-3 -30 -5 -57 -3 -58 9 -10 33 12 44 39 10 28 9 33 -12
53 l-24 22 -5 -56z"/>
<path d="M5651 10862 c0 -7 -12 -17 -25 -22 -24 -9 -24 -9 -8 -44 10 -20 25
-38 34 -41 21 -7 32 -54 23 -105 -6 -36 -5 -40 14 -40 12 0 21 6 21 14 0 8 9
24 20 37 l19 24 1 -42 c0 -23 -4 -45 -10 -48 -5 -3 2 -24 18 -47 26 -41 27
-41 30 -15 3 21 10 28 38 33 33 6 34 8 34 52 0 40 -5 50 -49 94 -27 27 -50 52
-49 55 0 2 -3 8 -7 11 -4 4 -6 3 -5 -3 1 -5 2 -26 1 -47 -1 -35 -2 -36 -28
-29 -21 6 -29 14 -31 37 -2 16 -9 32 -15 36 -6 4 -14 28 -18 55 -3 26 -7 42
-8 35z"/>
<path d="M7222 10838 c-28 -28 -7 -78 33 -78 27 0 45 18 45 45 0 27 -18 45
-45 45 -12 0 -26 -5 -33 -12z"/>
<path d="M5102 10828 c-28 -28 -7 -78 33 -78 27 0 45 18 45 45 0 27 -18 45
-45 45 -12 0 -26 -5 -33 -12z"/>
<path d="M7120 10722 c0 -130 -58 -279 -140 -360 -66 -66 -169 -147 -215 -169
-22 -11 -94 -33 -160 -48 -209 -48 -325 -90 -374 -136 l-22 -21 -77 40 c-99
51 -146 67 -267 87 -211 36 -368 124 -465 258 l-34 47 -35 -32 c-36 -35 -37
-36 9 39 12 19 10 29 -17 90 -40 86 -55 144 -55 205 1 43 -1 48 -21 48 -42 0
-51 -14 -33 -49 19 -35 16 -37 -24 -16 -25 13 -29 13 -34 0 -4 -11 2 -15 23
-15 16 0 33 -6 39 -13 13 -16 14 -344 1 -369 -9 -16 -5 -18 33 -18 l42 0 -29
-30 -29 -30 36 -30 c33 -27 79 -116 82 -158 1 -9 11 -27 23 -39 11 -11 34 -59
49 -106 26 -82 28 -85 51 -76 39 15 45 11 38 -21 -6 -27 -4 -30 19 -30 33 0
33 -13 1 -34 -14 -9 -25 -23 -25 -31 0 -22 9 -19 41 14 21 23 33 28 51 23 35
-10 105 -64 117 -89 6 -13 17 -23 25 -23 8 0 51 -30 96 -66 63 -51 84 -64 91
-53 4 8 15 23 23 34 15 19 15 18 16 -23 0 -51 23 -67 49 -34 12 16 32 23 83
28 46 5 72 3 82 -5 10 -9 16 -8 26 4 9 11 33 15 91 15 69 0 78 -2 84 -20 3
-11 15 -20 26 -20 16 0 19 7 19 42 l0 42 30 -29 30 -29 43 41 c56 53 111 93
128 93 8 0 21 13 31 29 18 33 88 81 116 81 10 0 29 -11 42 -25 16 -17 27 -22
34 -15 11 11 12 9 -33 37 l-34 21 41 7 c40 6 40 7 31 38 -5 18 -9 33 -9 35 0
1 9 -2 19 -8 37 -19 47 -12 65 53 9 34 29 80 44 102 14 22 25 47 24 56 -5 29
50 134 84 163 31 25 33 30 21 45 -33 39 -31 42 22 35 42 -5 51 -4 51 9 0 8
-12 18 -26 21 -25 7 -26 8 -25 104 0 53 -2 128 -5 165 -6 77 1 91 48 101 23 4
29 9 21 17 -8 8 -20 6 -42 -5 l-31 -16 17 35 c19 39 18 40 -19 49 l-28 6 0
-68z m-890 -1007 c0 -18 5 -25 20 -25 13 0 20 -7 20 -20 0 -13 -7 -20 -20 -20
-17 0 -20 -7 -20 -45 0 -33 -4 -45 -15 -45 -11 0 -15 12 -15 45 0 41 -2 45
-25 45 -18 0 -25 5 -25 20 0 15 7 20 25 20 20 0 25 5 25 25 0 16 6 25 15 25 9
0 15 -9 15 -25z"/>
<path d="M5455 10770 c-3 -5 -1 -10 4 -10 6 0 11 5 11 10 0 6 -2 10 -4 10 -3
0 -8 -4 -11 -10z"/>
<path d="M5494 10705 c-17 -17 -19 -25 -10 -47 5 -16 17 -30 27 -33 21 -7 33
-63 21 -96 -12 -30 -5 -49 17 -49 9 0 21 13 28 30 14 38 32 38 46 0 6 -17 19
-32 28 -35 21 -7 33 -64 20 -97 -8 -22 -3 -35 35 -91 24 -37 44 -70 44 -74 0
-4 -21 16 -46 45 -41 47 -48 51 -63 39 -40 -34 -91 -24 -91 18 0 15 -7 33 -15
41 -9 9 -15 34 -15 62 -1 42 -2 45 -14 29 -14 -18 -63 -26 -85 -13 -6 4 -11
14 -11 22 0 8 -4 12 -10 9 -19 -12 -10 -30 53 -103 96 -111 189 -163 323 -183
34 -5 68 -11 76 -14 13 -5 17 3 19 39 5 57 2 66 -21 66 -21 0 -30 19 -30 68 0
46 -35 122 -66 145 -21 16 -24 16 -24 2 0 -9 5 -13 10 -10 6 4 10 -10 10 -34
0 -38 -1 -39 -27 -32 -21 5 -29 14 -31 36 -2 15 -10 34 -18 42 -8 8 -14 34
-14 61 0 40 -2 44 -13 28 -9 -13 -23 -17 -52 -14 -36 3 -40 6 -43 33 -2 16 -9
33 -15 37 -6 4 -13 26 -16 50 l-6 43 -21 -20z"/>
<path d="M6808 10689 c-4 -11 -15 -14 -36 -11 -27 4 -31 1 -34 -24 -2 -23 -8
-29 -28 -29 -20 0 -26 6 -28 26 -2 19 -10 28 -28 32 l-24 4 0 -244 0 -245 28
7 c50 12 126 52 189 98 100 74 171 177 207 296 20 67 20 71 1 71 -9 0 -15 -9
-15 -25 0 -20 -5 -25 -25 -25 -20 0 -25 5 -25 25 0 24 -18 32 -54 26 -4 -1
-14 6 -22 16 -18 24 -18 8 0 -25 8 -15 17 -34 19 -43 3 -9 22 -24 42 -33 41
-20 36 -38 -9 -38 -14 0 -33 -9 -42 -19 -27 -30 -46 -24 -42 14 3 27 -1 32
-21 35 -22 4 -23 1 -17 -32 8 -42 -9 -49 -39 -16 -9 10 -25 19 -34 18 -35 -3
-51 3 -51 17 0 8 6 15 14 15 20 0 67 40 60 51 -3 6 2 19 11 29 9 10 15 25 13
31 -3 9 -6 9 -10 -2z m32 -229 c0 -15 7 -20 25 -20 21 0 25 -5 25 -30 0 -23
-4 -30 -20 -30 -15 0 -20 -7 -20 -25 0 -21 -5 -25 -30 -25 -25 0 -30 4 -30 25
0 18 -5 25 -20 25 -16 0 -20 7 -20 30 0 23 4 30 20 30 13 0 20 7 20 20 0 15 7
20 25 20 18 0 25 -5 25 -20z"/>
<path d="M6412 10679 c-49 -10 -58 -23 -42 -54 12 -23 12 -28 0 -35 -22 -14
-53 12 -65 53 -7 25 -13 31 -20 23 -21 -23 1 -68 48 -96 l32 -20 -39 0 c-23 0
-47 7 -58 17 -17 15 -18 14 -18 -16 0 -18 4 -30 9 -27 5 3 29 3 53 0 39 -6 46
-11 71 -55 32 -58 32 -59 8 -59 -21 0 -31 -19 -31 -56 0 -22 -3 -23 -20 -14
-11 6 -20 18 -20 26 0 19 -24 13 -27 -7 -2 -13 67 -69 86 -69 5 0 11 14 15 32
l6 31 24 -22 c32 -30 42 -85 21 -117 -15 -23 -15 -24 12 -24 l28 0 -3 75 c-2
44 0 75 6 75 11 0 3 40 -21 104 -11 28 -12 49 -5 83 10 45 3 149 -10 156 -4 2
-22 0 -40 -4z"/>
<path d="M7177 10673 c-4 -3 -7 -35 -7 -70 l0 -63 35 0 c28 0 35 4 35 20 0 24
-15 27 -24 4 -8 -22 -26 -7 -26 22 0 23 3 25 45 23 24 -2 48 0 51 4 12 11 44
-13 44 -33 0 -23 -15 -27 -24 -5 -9 23 -28 18 -24 -7 2 -19 9 -23 38 -23 l35
0 3 53 c4 74 -5 82 -98 82 -42 0 -80 -3 -83 -7z"/>
<path d="M5033 10648 c-5 -7 -7 -39 -5 -70 4 -57 5 -58 33 -58 29 0 50 23 34
38 -4 4 -10 1 -12 -5 -3 -7 -11 -13 -19 -13 -11 0 -14 8 -12 27 3 26 6 28 61
28 62 1 84 -12 72 -42 -6 -17 -7 -17 -19 0 -18 24 -28 21 -24 -5 2 -18 11 -24
36 -26 l33 -3 -3 68 -3 68 -81 3 c-57 2 -84 -1 -91 -10z"/>
<path d="M5920 10635 c-14 -8 -20 -15 -15 -15 6 0 5 -4 -2 -8 -9 -5 -9 -19 -3
-47 12 -50 13 -136 2 -167 -4 -13 -5 -57 -2 -98 6 -62 7 -66 8 -26 2 39 8 56
29 78 21 22 27 37 24 64 -2 25 5 47 24 76 25 37 26 43 11 53 -10 8 -16 27 -16
53 0 27 -5 42 -16 46 -19 7 -14 8 -44 -9z"/>
<path d="M6855 10638 c-4 -10 -4 -26 0 -35 8 -17 8 -17 12 0 3 9 3 25 0 35 -4
16 -4 16 -12 0z"/>
<path d="M6061 10614 c0 -11 3 -14 6 -6 3 7 2 16 -1 19 -3 4 -6 -2 -5 -13z"/>
<path d="M5450 10504 c0 -8 5 -12 10 -9 6 3 10 10 10 16 0 5 -4 9 -10 9 -5 0
-10 -7 -10 -16z"/>
<path d="M7172 10433 l3 -68 79 -3 c44 -2 83 1 87 5 4 4 9 35 11 68 l3 60 -33
3 c-35 4 -54 -20 -34 -40 8 -8 13 -7 18 5 10 27 26 20 22 -10 -3 -25 -6 -27
-57 -27 -62 -1 -88 12 -77 40 7 18 8 18 20 2 15 -21 36 -24 36 -5 0 21 -22 37
-52 37 l-29 0 3 -67z"/>
<path d="M6518 10484 c-4 -6 0 -38 8 -70 30 -107 30 -108 5 -101 -11 3 -19 1
-15 -4 8 -14 34 -11 40 6 3 8 -1 36 -10 62 -8 26 -16 64 -18 83 -2 19 -6 30
-10 24z"/>
<path d="M5032 10413 l3 -68 81 -3 c99 -3 105 2 97 81 -6 55 -7 57 -35 57 -17
0 -31 -6 -35 -15 -8 -23 7 -33 18 -12 6 9 14 15 20 12 11 -7 12 -55 2 -56 -97
-8 -133 0 -133 31 0 23 18 27 26 5 9 -24 24 -17 24 10 0 22 -4 25 -35 25 l-36
0 3 -67z"/>
<path d="M5596 10457 c3 -10 9 -15 12 -12 3 3 0 11 -7 18 -10 9 -11 8 -5 -6z"/>
<path d="M5987 10383 c-2 -5 2 -21 9 -38 l13 -30 1 38 c0 33 -12 49 -23 30z"/>
<path d="M5590 10354 c0 -8 5 -12 10 -9 6 4 8 11 5 16 -9 14 -15 11 -15 -7z"/>
<path d="M7214 10280 c-30 -12 -37 -39 -19 -66 18 -28 47 -31 70 -8 34 34 -6
91 -51 74z"/>
<path d="M5126 10254 c-23 -23 -20 -51 8 -69 45 -30 91 16 61 61 -18 28 -47
31 -69 8z"/>
<path d="M7092 10158 c-6 -7 -18 -33 -28 -57 -17 -42 -17 -44 1 -57 29 -22 55
-18 55 8 0 17 -3 19 -12 10 -19 -19 -30 -14 -26 10 4 28 33 35 56 15 9 -8 28
-17 42 -19 19 -2 26 -10 28 -30 2 -20 -1 -28 -12 -28 -9 0 -16 9 -16 20 0 24
-15 27 -24 4 -10 -26 -7 -31 25 -44 26 -11 32 -11 40 1 19 29 41 99 36 112 -4
11 -128 67 -149 67 -3 0 -10 -6 -16 -12z"/>
<path d="M5199 10130 c-30 -15 -60 -34 -66 -42 -15 -19 32 -118 56 -118 28 0
53 23 45 43 -9 23 -24 22 -24 -3 0 -26 -16 -26 -30 0 -14 26 -7 36 27 45 16 3
36 14 45 22 19 17 45 11 54 -12 9 -22 -3 -30 -21 -15 -18 15 -30 7 -22 -15 8
-19 37 -19 62 -1 19 13 19 15 0 56 -21 48 -40 70 -58 70 -7 -1 -37 -14 -68
-30z"/>
<path d="M6999 9965 c-30 -69 -24 -82 53 -116 36 -16 73 -26 81 -23 13 5 23
22 54 101 3 6 -9 19 -26 27 -28 15 -31 15 -41 -3 -7 -13 -7 -22 0 -26 5 -3 10
-1 10 4 0 6 7 11 15 11 16 0 19 -9 9 -34 -8 -20 -38 -21 -54 -1 -7 8 -23 15
-36 15 -32 0 -48 31 -29 56 8 11 15 15 16 9 1 -5 2 -14 3 -20 2 -19 21 -19 25
0 3 19 -23 45 -46 45 -8 0 -23 -20 -34 -45z"/>
<path d="M5327 9984 c-29 -16 -32 -21 -17 -44 8 -13 11 -11 16 8 8 26 20 28
32 5 12 -24 4 -43 -17 -43 -10 0 -30 -9 -45 -21 -30 -24 -66 -18 -66 12 0 22
11 24 28 7 15 -15 24 -6 16 16 -8 20 -34 21 -60 2 -19 -14 -18 -15 8 -70 15
-31 33 -56 39 -56 22 0 140 62 146 77 5 13 -33 109 -47 118 -3 2 -17 -3 -33
-11z"/>
<path d="M6990 9840 c0 -6 7 -10 15 -10 8 0 15 2 15 4 0 2 -7 6 -15 10 -8 3
-15 1 -15 -4z"/>
<path d="M5385 9820 c-3 -5 -1 -10 4 -10 6 0 11 5 11 10 0 6 -2 10 -4 10 -3 0
-8 -4 -11 -10z"/>
<path d="M6916 9779 c-20 -30 -6 -63 28 -67 33 -4 56 13 56 42 0 47 -57 63
-84 25z"/>
<path d="M5406 9764 c-23 -23 -20 -51 8 -69 45 -30 91 16 61 61 -18 28 -47 31
-69 8z"/>
<path d="M6746 9707 c-35 -30 -38 -35 -27 -55 12 -23 35 -29 46 -12 3 6 -3 10
-14 10 -27 0 -27 16 1 31 17 9 23 9 26 0 2 -6 15 -25 29 -41 26 -31 28 -60 4
-68 -10 -3 -12 1 -8 17 7 26 -7 36 -23 16 -10 -12 -9 -20 4 -40 10 -15 22 -23
29 -19 39 24 77 58 77 72 0 20 -77 122 -93 122 -7 0 -30 -15 -51 -33z"/>
<path d="M5571 9700 c-39 -43 -65 -94 -58 -113 3 -8 22 -27 41 -42 30 -23 39
-25 52 -15 16 14 16 53 -1 48 -5 -2 -9 -9 -7 -15 4 -18 -13 -16 -28 2 -10 13
-9 19 5 35 10 11 23 30 29 43 13 25 51 30 51 7 0 -9 -7 -14 -17 -12 -22 4 -24
-16 -2 -25 18 -7 60 30 50 45 -3 6 -24 25 -46 42 l-40 31 -29 -31z"/>
<path d="M6620 9605 c-19 -14 -38 -31 -42 -39 -10 -17 67 -126 88 -126 17 0
93 50 94 61 0 16 -38 52 -48 45 -19 -12 -14 -26 9 -26 18 0 19 -2 9 -15 -18
-21 -37 -19 -51 8 -7 12 -18 26 -25 30 -20 11 -18 57 2 57 11 0 14 -6 9 -20
-7 -24 7 -26 25 -5 10 13 10 19 -5 35 -23 25 -24 25 -65 -5z"/>
<path d="M5730 9584 c-11 -19 -11 -27 -2 -36 9 -9 12 -7 12 10 0 25 12 28 30
7 10 -12 7 -20 -14 -46 -14 -17 -26 -35 -26 -40 0 -12 -37 -12 -45 1 -3 6 3
10 15 10 13 0 20 5 18 13 -7 18 -39 15 -52 -5 -8 -14 -4 -24 24 -53 19 -19 40
-35 46 -35 14 0 54 49 78 95 15 28 14 31 -12 58 -43 46 -57 50 -72 21z"/>
<path d="M6230 9480 c0 -18 6 -33 15 -37 21 -7 32 4 17 19 -19 19 -14 28 12
28 24 0 25 -2 23 -62 -2 -57 -4 -63 -24 -66 -13 -2 -23 1 -23 7 0 6 7 11 15
11 8 0 15 7 15 16 0 10 -7 14 -22 12 -19 -2 -23 -9 -23 -38 0 -35 0 -35 50
-38 28 -1 55 1 61 5 16 11 26 131 13 154 -8 15 -21 19 -69 19 l-60 0 0 -30z"/>
<path d="M6540 9500 c0 -5 5 -10 11 -10 5 0 7 5 4 10 -3 6 -8 10 -11 10 -2 0
-4 -4 -4 -10z"/>
<path d="M5845 9490 c-3 -5 -1 -10 4 -10 6 0 11 5 11 10 0 6 -2 10 -4 10 -3 0
-8 -4 -11 -10z"/>
<path d="M6050 9464 c-14 -35 -12 -118 2 -132 7 -7 36 -12 65 -12 52 0 53 1
53 29 0 32 -13 47 -31 36 -6 -5 -4 -12 8 -20 17 -13 17 -14 1 -20 -34 -13 -45
1 -44 56 1 37 6 55 18 63 22 14 34 1 18 -19 -15 -18 -7 -30 15 -22 9 4 15 19
15 37 0 30 0 30 -55 30 -50 0 -56 -2 -65 -26z"/>
<path d="M6458 9479 c-21 -12 -24 -59 -6 -77 7 -7 21 -12 33 -12 46 0 62 57
23 84 -26 19 -27 19 -50 5z"/>
<path d="M5890 9450 c-25 -25 -25 -32 -2 -60 25 -31 69 -21 78 17 5 20 2 31
-16 45 -28 23 -35 23 -60 -2z"/>
<path d="M6111 5914 c-37 -47 -41 -187 -7 -239 12 -19 25 -25 52 -25 71 0 74
6 74 140 0 112 -1 120 -22 134 -34 24 -73 20 -97 -10z"/>
<path d="M3676 5928 c-9 -12 -16 -35 -16 -50 0 -28 0 -28 70 -28 64 0 70 2 70
21 0 23 -18 60 -34 71 -24 16 -75 8 -90 -14z"/>
<path d="M5443 5750 c-27 -11 -39 -53 -27 -89 11 -30 54 -40 91 -20 20 11 23
20 23 66 l0 53 -32 -1 c-18 0 -43 -4 -55 -9z"/>
<path d="M7552 5744 c-16 -11 -22 -25 -22 -53 0 -46 14 -61 56 -61 42 0 64 30
64 87 l0 43 -38 0 c-21 0 -48 -7 -60 -16z"/>
<path d="M8756 5928 c-7 -13 -16 -35 -20 -50 l-6 -28 75 0 c81 0 85 3 64 57
-13 35 -25 43 -66 43 -23 0 -37 -7 -47 -22z"/>
<path d="M10284 5929 c-27 -30 -34 -211 -10 -258 30 -57 95 -50 122 14 17 41
19 169 3 214 -19 53 -80 69 -115 30z"/>
<path d="M6959 3193 c-32 -13 -37 -20 -42 -56 -6 -44 6 -125 23 -157 28 -53
115 -68 165 -28 72 56 73 193 3 242 -28 20 -100 19 -149 -1z"/>
</g>
</svg>
